<svg width="123" height="152" viewBox="0 0 123 152" fill="none" xmlns="http://www.w3.org/2000/svg">
<path d="M62.9688 1.0112C66.2764 0.810592 69.1207 3.32955 69.3213 6.63717L71.1351 36.5559C71.1892 37.4474 72.296 37.8263 72.885 37.1548L92.1816 15.1587C94.3667 12.6675 98.1573 12.4189 100.648 14.604L108.918 21.8579C111.409 24.043 111.657 27.8335 109.472 30.3247L81.4741 62.2408C81.1102 62.6556 81.1512 63.2868 81.5656 63.6512L120.505 97.8862C122.993 100.074 123.238 103.865 121.05 106.354L113.786 114.615C111.598 117.103 107.807 117.348 105.318 115.16L83.8253 96.264C83.1575 95.677 82.1131 96.1881 82.1669 97.0756L84.0137 127.525C84.2143 130.832 81.6961 133.677 78.3887 133.877L67.4082 134.543C64.1007 134.744 61.2574 132.225 61.0566 128.917L58.9333 93.9129C58.8792 93.0214 57.7723 92.6426 57.1834 93.3141L36.2471 117.183C34.0619 119.674 30.2714 119.922 27.7803 117.737L19.5107 110.484C17.0196 108.299 16.7709 104.507 18.9561 102.016L38.8755 79.3073C39.4424 78.661 38.9834 77.6479 38.1237 77.6479H6C2.68636 77.6479 0.000113356 74.9615 0 71.6479V60.6479C0 57.3342 2.68629 54.6479 6 54.6479H36.8386C37.8 54.6479 38.2075 53.4236 37.4379 52.8474L11.8027 33.6548C9.15047 31.6687 8.60992 27.9088 10.5957 25.2563L17.1885 16.4506C19.1745 13.798 22.9353 13.2576 25.5879 15.2436L46.0814 30.5874C46.7633 31.0979 47.7305 30.5767 47.6789 29.7264L46.3633 8.02877C46.1629 4.7213 48.6817 1.87782 51.9893 1.67721L62.9688 1.0112Z" fill="#71D31C"/>
<path d="M25.2493 27.4576C22.0493 27.8576 19.3336 36.6667 19.0002 39.0001L9.49988 32.5001C6.16967 25.8401 17.5488 12.8051 24.2601 13.277C24.9247 13.3238 25.5121 13.6778 26.0229 14.1054L44.1892 29.3104C45.5705 30.4665 47.6564 29.3505 47.4611 27.5598L45.5416 9.96441C45.2006 6.83886 46.3054 3.5701 49.205 2.35454C54.2472 0.240744 60.742 0.246527 65.1227 1.34115C67.7557 1.99905 69.1584 4.52472 69.4389 7.22412L71.5612 27.647C71.6856 28.8442 71.9437 30.1068 72.8681 30.8776C74.6481 32.3619 77.4383 32.2638 79.0699 30.326L91.219 15.8967C93.2803 13.4486 96.4608 12.1024 99.3334 13.5133C104.518 16.0599 110.252 21.2581 111 25V43C111 43.2762 110.776 43.5 110.5 43.5C110.224 43.5 110 43.7239 110 44V54.75C110 55.4404 109.44 56 108.75 56C108.06 56 107.5 55.4404 107.5 54.75V43.75C107.5 43.0597 106.94 42.5 106.25 42.5C105.56 42.5 105 43.0597 105 43.75V47C105 47.8284 104.328 48.5 103.5 48.5C102.672 48.5 102 47.8284 102 47V42.3682C102 41.6126 101.387 41 100.632 41C100.231 41 99.8502 41.1758 99.5903 41.481L83.4441 60.4362C83.1937 60.7301 83.2126 61.1674 83.4873 61.4387L120.194 97.6863C121.963 99.4334 122.819 101.904 122.511 104.371L120.046 124.089C120.017 124.323 119.887 124.533 119.691 124.663C119.167 125.013 118.462 124.657 118.432 124.027L118.099 117.03C118.068 116.385 117.227 116.16 116.878 116.703L114.598 120.249C114.131 120.977 113.041 120.886 112.7 120.091L112.527 119.687C112.207 118.941 111.474 118.458 110.663 118.458H110.275C109.534 118.458 108.895 118.981 108.75 119.708L108.687 120.025C108.578 120.567 108.102 120.958 107.549 120.958C106.953 120.958 106.455 120.506 106.395 119.914L106.04 116.394C106.014 116.141 105.894 115.906 105.703 115.737L84.1433 96.627C84.0497 96.544 83.9815 96.4362 83.9467 96.3161C83.7265 95.5561 82.5995 95.7542 82.6517 96.5438L84.4686 124.025C84.4863 124.292 84.708 124.5 84.9756 124.5C85.8175 124.5 86.5 125.182 86.5 126.024V128.966C86.5 129.906 85.969 130.766 85.1283 131.186L84.8333 131.333C84.0162 131.742 83.5 132.577 83.5 133.491V141.5H85.5V144.5C85.5 144.776 85.7238 145 86 145C86.2761 145 86.5 145.224 86.5 145.5V150V150C86.5 150.868 85.3675 152 84.5 152V152H81.625C81.2798 152 81 151.72 81 151.375C81 151.168 80.8321 151 80.625 151H80.4545C80.2035 151 80 150.796 80 150.545V145.952C80 145.426 80.4264 145 80.9524 145C80.9787 145 81 144.979 81 144.952V140.418C81 138.833 80.5865 137.276 79.8004 135.901C79.3067 135.037 78.3819 134.51 77.3868 134.525L76.2509 134.543L76.6329 135.306C77.1466 136.334 76.3995 137.543 75.2509 137.543C74.1023 137.543 73.3553 136.334 73.869 135.306L74.2509 134.543L72.5 134.5H66.3985C65.6261 134.5 65 133.874 65 133.102C65 131.423 65.6035 129.801 66.7004 128.531L70.244 124.428C73.0099 121.225 74.6887 117.228 75.0389 113.011L75.5625 106.707C75.6866 105.212 75.6422 103.708 75.4301 102.223L74.3498 94.6611C74.2829 94.1926 74.2362 93.7059 74.4396 93.2787C75.4863 91.08 80.6215 86.6359 84.0739 83.8812C84.8115 83.2926 85.2493 82.405 85.2493 81.4613C85.2493 80.8094 85.0401 80.1746 84.6526 79.6503L78.3159 71.077C77.2984 69.7004 76.7493 68.0337 76.7493 66.3219V63.8589C76.7493 61.9844 77.4075 60.1694 78.6091 58.7307L91.2628 43.58C92.3672 42.2577 92.8499 40.5244 92.5879 38.8215L91.2223 29.9448C91.0944 29.1136 90.3792 28.5 89.5382 28.5C88.5918 28.5 87.7229 29.0229 87.2798 29.8592L79.649 44.2596C79.0638 45.3639 78.1617 46.3667 76.9219 46.5238C75.4933 46.7048 74.2189 46.2715 73.2515 45.6933C72.1616 45.0419 71.6953 43.7756 71.595 42.51L71.2231 37.8158C71.0894 36.1278 69.9073 34.7069 68.2718 34.2682L66.4043 33.7673C65.693 33.5765 64.9344 33.7921 64.4297 34.3283L59.4241 39.6468C58.1503 41.0002 56.1121 41.298 54.5044 40.3655L32.2493 27.4576C31.2493 27.2909 28.4493 27.0576 25.2493 27.4576Z" fill="#F5028C"/>
<path d="M41.3984 37.1926C38.8984 34.6926 32.8984 29.9926 28.8984 31.1926C23.8984 32.6926 41.3984 40.6926 41.3984 37.1926Z" fill="#F5028C"/>
</svg>
